<svg xmlns="http://www.w3.org/2000/svg" viewBox="0 0 400 820" width="400" height="820">
  <defs>
    <linearGradient id="screenBg" x1="0%" y1="0%" x2="100%" y2="100%">
      <stop offset="0%" stop-color="#4facfe" />
      <stop offset="100%" stop-color="#00f2fe" />
    </linearGradient>
  </defs>

  <rect x="15" y="160" width="6" height="30" rx="3" fill="#666"/>
  <rect x="15" y="220" width="6" height="60" rx="3" fill="#666"/>
  <rect x="15" y="300" width="6" height="60" rx="3" fill="#666"/>

  <rect x="379" y="240" width="6" height="90" rx="3" fill="#666"/>

  <rect x="20" y="20" width="360" height="780" rx="55" ry="55" fill="#1c1c1e" stroke="#5a5a5c" stroke-width="4"/>

  <rect x="28" y="28" width="344" height="764" rx="48" ry="48" fill="url(#screenBg)"/>

  <rect x="28" y="28" width="344" height="764" rx="48" ry="48" fill="none" stroke="#000" stroke-width="8"/>

  <rect x="135" y="45" width="130" height="36" rx="18" ry="18" fill="#000000"/>
  <circle cx="245" cy="63" r="8" fill="#111"/>
  <circle cx="245" cy="63" r="3" fill="#1a1a3a"/>
  <circle cx="155" cy="63" r="5" fill="#0a0a0a"/>

  <rect x="130" y="770" width="140" height="5" rx="2.5" fill="#ffffff" opacity="0.9"/>
</svg>